<svg width="96" height="100" viewBox="0 0 96 100" fill="none" xmlns="http://www.w3.org/2000/svg">
<path d="M14.144 47.6C14.144 55.472 16.448 62.048 21.056 67.328C25.664 72.512 32.576 75.104 41.792 75.104V21.68C32.48 21.776 25.52 24.176 20.912 28.88C16.4 33.488 14.144 39.728 14.144 47.6ZM81.536 47.6C81.536 39.632 79.28 33.344 74.768 28.736C70.256 24.032 63.296 21.68 53.888 21.68V75.104C63.2 75.104 70.112 72.512 74.624 67.328C79.232 62.048 81.536 55.472 81.536 47.6ZM27.68 99.44V93.68L41.792 92.096V81.872C31.424 81.776 23.168 80.144 17.024 76.976C10.976 73.808 6.608 69.68 3.92 64.592C1.328 59.408 0.0320001 53.84 0.0320001 47.888C0.0320001 41.552 1.568 35.936 4.64 31.04C7.808 26.048 12.464 22.16 18.608 19.376C24.848 16.496 32.576 15.056 41.792 15.056V7.568L27.68 5.98399V0.079999H68.144V5.98399L53.888 7.712V15.056C63.584 15.056 71.504 16.496 77.648 19.376C83.888 22.256 88.448 26.192 91.328 31.184C94.304 36.08 95.792 41.648 95.792 47.888C95.792 53.84 94.448 59.408 91.76 64.592C89.168 69.776 84.8 73.952 78.656 77.12C72.608 80.288 64.352 81.872 53.888 81.872V91.952L68.144 93.68V99.44H27.68Z" fill="black"/>
</svg>
